<svg id="Capa_1" enable-background="new 0 0 512 512" height="512" viewBox="0 0 512 512" width="512" xmlns="http://www.w3.org/2000/svg"><g><g><path d="m497 201h-482c-8.284 0-15-6.716-15-15v-90c0-24.813 20.187-45 45-45h422c24.813 0 45 20.187 45 45v90c0 8.284-6.716 15-15 15z" fill="#f17ab4"/></g><path d="m467 51h-211v150h241c8.284 0 15-6.716 15-15v-90c0-24.813-20.187-45-45-45z" fill="#ff3c7d"/><g><path d="m0 186v270c0 24.853 20.147 45 45 45h91c8.284 0 15-6.716 15-15v-285c0-8.284-6.716-15-15-15z" fill="#44ffe8"/><path d="m136 186v315h331c24.813 0 45-20.187 45-45v-270z" fill="#f6f9f9"/><path d="m256 501h211c24.813 0 45-20.187 45-45v-270h-256z" fill="#f6e4e7"/></g><g><path d="m196 253.5h60v60h-60z" fill="#44ffe8"/><g fill="#00e4ef"><path d="m256 253.5h60v60h-60z"/><path d="m316 253.5h60v60h-60z"/><path d="m376 253.5h60v60h-60z"/></g><path d="m196 313.5h60v60h-60z" fill="#44ffe8"/><path d="m256 313.5h60v60h-60z" fill="#00e4ef"/><path d="m316 313.5h60v60h-60z" fill="#00e4ef"/><path d="m376 313.5h60v60h-60z" fill="#00e4ef"/><path d="m196 373.5h60v60h-60z" fill="#44ffe8"/><path d="m256 373.5h60v60h-60z" fill="#00e4ef"/><path d="m316 373.5h60v60h-60z" fill="#00e4ef"/><path d="m376 373.5h60v60h-60z" fill="#00e4ef"/><path d="m436 238.5h-240c-8.284 0-15 6.716-15 15v180c0 8.284 6.716 15 15 15h240c8.284 0 15-6.716 15-15v-180c0-8.284-6.716-15-15-15zm-225 90h30v30h-30zm60 0h30v30h-30zm60 0h30v30h-30zm60 0h30v30h-30zm30-30h-30v-30h30zm-60 0h-30v-30h30zm-60 0h-30v-30h30zm-90-30h30v30h-30zm0 120h30v30h-30zm60 0h30v30h-30zm60 0h30v30h-30zm90 30h-30v-30h30z" fill="#5e6b75"/><path d="m436 238.5h-180v210h180c8.284 0 15-6.716 15-15v-180c0-8.284-6.716-15-15-15zm-135 180h-30v-30h30zm0-60h-30v-30h30zm0-60h-30v-30h30zm60 120h-30v-30h30zm0-60h-30v-30h30zm0-60h-30v-30h30zm60 120h-30v-30h30zm0-60h-30v-30h30zm0-60h-30v-30h30z" fill="#525263"/><g><path d="m436 121c-8.284 0-15-6.716-15-15v-80c0-8.284 6.716-15 15-15s15 6.716 15 15v80c0 8.284-6.716 15-15 15z" fill="#525263"/></g><g><path d="m376 121c-8.284 0-15-6.716-15-15v-80c0-8.284 6.716-15 15-15s15 6.716 15 15v80c0 8.284-6.716 15-15 15z" fill="#525263"/></g><g><path d="m76 121c-8.284 0-15-6.716-15-15v-80c0-8.284 6.716-15 15-15s15 6.716 15 15v80c0 8.284-6.716 15-15 15z" fill="#5e6b75"/></g><g><path d="m136 121c-8.284 0-15-6.716-15-15v-80c0-8.284 6.716-15 15-15s15 6.716 15 15v80c0 8.284-6.716 15-15 15z" fill="#5e6b75"/></g></g><g><path d="m316 133.5h-120c-8.284 0-15-6.716-15-15s6.716-15 15-15h120c8.284 0 15 6.716 15 15s-6.716 15-15 15z" fill="#f6f9f9"/></g><path d="m316 103.5h-60v30h60c8.284 0 15-6.716 15-15s-6.716-15-15-15z" fill="#f6e4e7"/></g></svg>