<?xml version="1.0" encoding="iso-8859-1"?>
<!-- Generator: Adobe Illustrator 19.0.0, SVG Export Plug-In . SVG Version: 6.00 Build 0)  -->
<svg version="1.1" id="Capa_1" xmlns="http://www.w3.org/2000/svg" xmlns:xlink="http://www.w3.org/1999/xlink" x="0px" y="0px"
	 viewBox="0 0 512 512" style="enable-background:new 0 0 512 512;" xml:space="preserve">
<g>
	<g>
		<path d="M481.329,49.184c-19.046-19.051-44.045-29.934-70.39-30.646c-26.509-0.716-51.128,8.928-69.353,27.157l-215.37,215.403
			c-27.828,27.833-26.812,74.136,2.266,103.218c14.017,14.019,32.445,22.003,51.888,22.478c0.615,0.015,1.228,0.022,1.84,0.022
			c18.881,0,36.392-7.145,49.479-20.234l150.793-150.818c9.805-9.806,9.805-25.762,0-35.567c-4.749-4.751-11.065-7.367-17.783-7.367
			c-6.718,0-13.034,2.616-17.783,7.367L196.122,331.014c-3.865,3.866-9.24,5.825-15.171,5.508
			c-6.219-0.33-12.222-3.091-16.904-7.773c-9.468-9.471-10.485-23.863-2.265-32.084L377.15,81.262
			c5.23-5.23,11.566-8.89,18.832-10.876c3.996-1.092,6.35-5.216,5.258-9.211c-1.092-3.996-5.221-6.358-9.211-5.258
			c-9.677,2.644-18.491,7.741-25.487,14.739L151.174,286.059c-14.067,14.068-13.051,37.976,2.265,53.295
			c7.305,7.306,16.792,11.62,26.715,12.146c10.228,0.556,19.661-2.966,26.575-9.881l150.794-150.817
			c1.917-1.917,4.465-2.973,7.175-2.973c2.71,0,5.258,1.056,7.175,2.973c3.957,3.958,3.957,10.398,0,14.356L221.08,355.977
			c-10.578,10.58-24.875,16.212-40.344,15.822c-15.576-0.382-30.366-6.806-41.647-18.089c-23.23-23.234-24.247-60.022-2.266-82.007
			L352.193,56.3c15.284-15.286,36.008-23.373,58.34-22.767c22.492,0.607,43.866,9.933,60.188,26.257
			c33.641,33.647,35.207,86.83,3.489,118.552l-23.93,23.935c-2.929,2.93-2.929,7.678,0.001,10.606
			c2.93,2.928,7.679,2.927,10.607-0.001l23.93-23.935C522.383,151.376,520.818,88.678,481.329,49.184z"/>
	</g>
</g>
<g>
	<g>
		<path d="M456.371,74.146c-7.871-7.874-17.517-13.808-27.893-17.16c-3.939-1.273-8.169,0.89-9.443,4.831
			c-1.274,3.941,0.89,8.169,4.831,9.442c8.125,2.625,15.697,7.291,21.897,13.492c19.88,19.883,21.445,50.67,3.489,68.629
			l-270.48,270.525c-13.225,13.226-31.312,20.07-50.975,19.267c-19.877-0.81-38.887-9.319-53.525-23.96
			c-30.105-30.109-32.21-76.998-4.692-104.521l205.905-205.939c9.804-9.806,9.804-25.761,0-35.567
			c-4.75-4.751-11.065-7.367-17.783-7.367c-6.718,0-13.033,2.616-17.783,7.367L86.023,227.109
			c-2.929,2.929-2.929,7.678,0.001,10.606c2.93,2.928,7.677,2.928,10.607-0.001L250.528,83.791c1.916-1.917,4.465-2.973,7.175-2.973
			c2.71,0,5.259,1.056,7.175,2.973c3.957,3.958,3.957,10.398,0,14.356L58.973,304.086c-33.365,33.372-31.261,89.775,4.692,125.732
			c17.309,17.312,39.868,27.378,63.522,28.343c1.246,0.051,2.485,0.076,3.722,0.076c22.449-0.001,43.096-8.349,58.471-23.726
			l270.48-270.526C483.663,140.178,482.098,99.876,456.371,74.146z"/>
	</g>
</g>
<g>
	<g>
		<path d="M437.974,225.192c-2.93-2.929-7.679-2.929-10.606,0.001L203.73,448.866c-19.905,19.908-46.91,30.421-76.025,29.588
			c-29.281-0.832-57.121-13.007-78.392-34.28C5.446,400.3,3.343,331.016,44.623,289.729L73.548,260.8
			c2.929-2.929,2.929-7.678-0.001-10.606c-2.93-2.93-7.679-2.929-10.607,0.001l-28.925,28.929
			c-47.128,47.135-45.024,125.933,4.691,175.655c23.99,23.994,55.446,37.727,88.573,38.669c1.215,0.035,2.424,0.052,3.633,0.052
			c31.899,0,61.407-12.006,83.426-34.028l223.637-223.674C440.904,232.869,440.904,228.12,437.974,225.192z"/>
	</g>
</g>
<g>
</g>
<g>
</g>
<g>
</g>
<g>
</g>
<g>
</g>
<g>
</g>
<g>
</g>
<g>
</g>
<g>
</g>
<g>
</g>
<g>
</g>
<g>
</g>
<g>
</g>
<g>
</g>
<g>
</g>
</svg>
